<svg width="241" height="241" viewBox="0 0 241 241" fill="none" xmlns="http://www.w3.org/2000/svg">
<path d="M69.6972 227.558C69.2236 228.555 69.6481 229.75 70.6538 230.207C85.8915 237.13 102.412 240.807 119.162 240.993C136.58 241.186 153.832 237.601 169.731 230.485C185.629 223.368 199.796 212.89 211.254 199.771C222.713 186.652 231.192 171.205 236.106 154.494C241.02 137.783 242.252 120.205 239.718 102.972C237.185 85.7388 230.945 69.2597 221.429 54.6702C211.913 40.0807 199.348 27.7276 184.598 18.4622C170.413 9.55149 154.532 3.70021 137.972 1.27343C136.879 1.11327 135.876 1.88786 135.734 2.98327L131.601 34.8665C131.459 35.9619 132.232 36.9626 133.324 37.1305C144.702 38.8806 155.609 42.9425 165.368 49.0735C175.693 55.5593 184.489 64.2065 191.15 74.4191C197.811 84.6318 202.179 96.1672 203.953 108.23C205.726 120.294 204.864 132.598 201.424 144.296C197.984 155.994 192.049 166.807 184.028 175.99C176.007 185.173 166.09 192.508 154.961 197.489C143.832 202.471 131.756 204.98 119.564 204.845C108.038 204.717 96.669 202.228 86.1548 197.541C85.1459 197.091 83.9539 197.514 83.4804 198.512L69.6972 227.558Z" fill="#32ADE6"/>
<path d="M7.02758 86.3494C5.96988 86.0311 4.85258 86.6305 4.55184 87.6933C-2.78896 113.637 -1.22103 141.315 9.03918 166.29C19.2994 191.265 37.6419 212.052 61.1006 225.343C62.0617 225.887 63.2777 225.528 63.8061 224.558L79.1876 196.326C79.7161 195.356 79.3567 194.144 78.3996 193.592C62.2278 184.278 49.5835 169.85 42.4774 152.553C35.3714 135.256 34.2217 116.106 39.175 98.1131C39.4682 97.0482 38.8713 95.9331 37.8136 95.6148L7.02758 86.3494Z" fill="#30D158"/>
<path d="M128.376 2.26201C128.449 1.15988 127.615 0.205167 126.512 0.15005C101.546 -1.09725 76.7915 5.45086 55.6903 18.9128C34.5891 32.3748 18.2179 52.0638 8.82713 75.2294C8.41217 76.2531 8.92638 77.412 9.95678 77.8099L39.948 89.3921C40.9784 89.79 42.1341 89.276 42.5564 88.2554C49.165 72.2801 60.5313 58.7046 75.1332 49.389C89.7352 40.0733 106.836 35.4874 124.109 36.2272C125.212 36.2745 126.166 35.4431 126.239 34.3409L128.376 2.26201Z" fill="#AF52DE"/>
<path d="M175.17 64.5868C175.943 63.7977 175.932 62.5294 175.124 61.7764C167.127 54.324 157.687 48.5771 147.38 44.8952C136.444 40.9888 124.792 39.4997 113.225 40.5305C101.659 41.5613 90.4531 45.0874 80.3806 50.8659C70.3081 56.6445 61.6081 64.538 54.88 74.0027C48.152 83.4674 43.5559 94.2782 41.4083 105.69C39.2608 117.102 39.6129 128.844 42.4404 140.107C45.2679 151.37 50.5035 161.886 57.7866 170.93C64.6512 179.455 73.181 186.482 82.8475 191.586C83.8243 192.102 85.0259 191.696 85.5171 190.706L94.4566 172.704C94.9479 171.714 94.5422 170.517 93.5709 169.991C87.0221 166.444 81.237 161.627 76.5574 155.815C71.4592 149.484 67.7943 142.123 65.815 134.239C63.8358 126.355 63.5893 118.136 65.0926 110.147C66.5959 102.159 69.8132 94.5912 74.5228 87.9659C79.2324 81.3406 85.3224 75.8151 92.3732 71.7702C99.4239 67.7252 107.268 65.2569 115.364 64.5354C123.461 63.8138 131.618 64.8562 139.273 67.5906C146.299 70.1006 152.749 73.9814 158.252 79.0008C159.068 79.7452 160.332 79.735 161.105 78.9459L175.17 64.5868Z" fill="#32ADE6"/>
<path d="M183.912 166.336C184.809 166.982 186.061 166.78 186.684 165.868C196.693 151.221 201.582 133.653 200.555 115.905C199.528 98.157 192.644 81.2707 181.013 67.8759C180.288 67.0419 179.021 66.9859 178.205 67.7306L163.362 81.283C162.546 82.0278 162.491 83.2907 163.207 84.1324C171.112 93.4347 175.788 105.074 176.495 117.298C177.203 129.521 173.901 141.622 167.122 151.774C166.508 152.693 166.708 153.941 167.604 154.587L183.912 166.336Z" fill="#30D158"/>
<path d="M89.9601 192.742C89.5315 193.76 90.0086 194.936 91.037 195.339C106.335 201.336 123.122 202.503 139.13 198.655C155.138 194.808 169.561 186.139 180.463 173.844C181.196 173.018 181.087 171.754 180.242 171.042L164.876 158.085C164.031 157.373 162.772 157.483 162.03 158.302C154.448 166.671 144.509 172.576 133.498 175.223C122.487 177.869 110.95 177.127 100.392 173.117C99.3598 172.725 98.1881 173.199 97.7595 174.217L89.9601 192.742Z" fill="#AF52DE"/>
<path d="M75.3521 141.915C74.3478 142.375 73.9029 143.564 74.4009 144.55C77.4968 150.68 81.7749 156.146 86.9953 160.628C92.7221 165.545 99.4468 169.162 106.706 171.23C113.965 173.297 121.587 173.767 129.045 172.606C136.503 171.444 143.621 168.68 149.907 164.503C156.194 160.326 161.501 154.835 165.461 148.41C169.422 141.984 171.943 134.777 172.849 127.283C173.756 119.79 173.027 112.189 170.714 105.004C168.604 98.4548 165.224 92.3932 160.772 87.1637C160.056 86.3226 158.788 86.2721 157.975 87.0197L149.388 94.9156C148.575 95.6632 148.527 96.9251 149.229 97.7778C152.155 101.332 154.388 105.412 155.803 109.806C157.422 114.835 157.932 120.156 157.298 125.401C156.663 130.647 154.899 135.692 152.126 140.19C149.354 144.688 145.639 148.531 141.238 151.455C136.838 154.379 131.855 156.314 126.635 157.127C121.414 157.94 116.079 157.611 110.997 156.164C105.916 154.717 101.209 152.185 97.1999 148.743C93.6977 145.736 90.8014 142.097 88.6587 138.022C88.1446 137.044 86.9626 136.6 85.9583 137.059L75.3521 141.915Z" fill="#32ADE6"/>
<path d="M93.4867 79.0089C92.8812 78.085 91.6389 77.8238 90.7389 78.4642C81.5431 85.0067 74.6985 94.366 71.2602 105.153C67.8219 115.94 67.9878 127.534 71.7012 138.191C72.0647 139.234 73.229 139.74 74.2574 139.337L85.1179 135.08C86.1463 134.677 86.6476 133.517 86.3013 132.469C83.8904 125.166 83.8395 117.27 86.1853 109.91C88.5312 102.551 93.1421 96.1405 99.3344 91.58C100.224 90.9249 100.486 89.6895 99.8803 88.7656L93.4867 79.0089Z" fill="#30D158"/>
<path d="M155.783 84.7808C156.548 83.9839 156.524 82.7147 155.699 81.9809C147.898 75.0473 138.184 70.5999 127.805 69.2379C117.427 67.8758 106.894 69.6662 97.568 74.352C96.581 74.8479 96.2308 76.0681 96.7641 77.0354L102.396 87.2506C102.93 88.2178 104.144 88.5643 105.139 88.0846C111.533 85.0025 118.701 83.8424 125.767 84.7697C132.833 85.697 139.459 88.6674 144.841 93.2949C145.678 94.015 146.941 93.9937 147.706 93.1968L155.783 84.7808Z" fill="#AF52DE"/>
<path d="M146.61 105.258C147.557 104.689 147.868 103.456 147.241 102.547C144.99 99.2815 142.151 96.4563 138.862 94.2188C135.022 91.6056 130.661 89.8561 126.08 89.0907C121.498 88.3253 116.805 88.5622 112.324 89.7852C107.843 91.0081 103.681 93.188 100.123 96.1747C96.5658 99.1614 93.6982 102.884 91.7179 107.085C89.7376 111.287 88.6918 115.868 88.6525 120.513C88.6133 125.158 89.5814 129.756 91.4903 133.99C93.1248 137.616 95.4158 140.902 98.2418 143.684C99.029 144.459 100.297 144.366 101.022 143.532L104.721 139.274C105.445 138.441 105.349 137.183 104.583 136.388C102.798 134.534 101.34 132.384 100.279 130.029C98.9424 127.064 98.2647 123.846 98.2922 120.594C98.3197 117.343 99.0518 114.136 100.438 111.195C101.824 108.254 103.831 105.648 106.322 103.558C108.812 101.467 111.726 99.9411 114.862 99.085C117.999 98.229 121.284 98.0631 124.491 98.5989C127.698 99.1347 130.751 100.359 133.439 102.189C135.575 103.642 137.44 105.449 138.957 107.529C139.608 108.421 140.83 108.733 141.776 108.164L146.61 105.258Z" fill="#32ADE6"/>
<path d="M140.013 143.985C140.718 144.836 141.984 144.958 142.789 144.202C147.655 139.63 150.988 133.642 152.299 127.062C153.61 120.481 152.825 113.673 150.082 107.586C149.628 106.579 148.412 106.207 147.436 106.722L142.447 109.354C141.47 109.87 141.105 111.077 141.532 112.096C143.257 116.215 143.723 120.77 142.845 125.179C141.967 129.588 139.791 133.617 136.619 136.76C135.835 137.538 135.71 138.793 136.414 139.643L140.013 143.985Z" fill="#30D158"/>
<path d="M102.479 144.72C101.808 145.597 101.972 146.858 102.889 147.474C108.002 150.902 114.006 152.798 120.189 152.913C126.372 153.027 132.443 151.355 137.679 148.118C138.619 147.538 138.829 146.284 138.191 145.382L134.933 140.778C134.295 139.877 133.051 139.671 132.096 140.227C128.55 142.29 124.495 143.351 120.368 143.274C116.241 143.198 112.228 141.988 108.76 139.794C107.827 139.204 106.576 139.363 105.905 140.24L102.479 144.72Z" fill="#AF52DE"/>
</svg>
